# This file uses centimeters as units for non-parametric coordinates.

g default
v -0.433013 0.045248 -0.250000
v 0.000000 0.045248 -0.500000
v -0.375571 0.119577 -0.216836
v 0.000000 0.119577 -0.433672
v 0.000000 0.119577 -0.200000
v -0.173205 0.119577 -0.100000
vt 0.583333 0.312500
vt 0.625000 0.312500
vt 0.625000 0.688440
vt 0.583333 0.688440
vt 0.656250 0.843750
vt 0.578125 0.979066
vt 0.531250 0.894127
vt 0.562500 0.840000
vn -0.395626 0.611489 -0.685245
vn -0.395626 0.611489 -0.685245
vn -0.395626 0.611489 -0.685245
vn -0.395626 0.611489 -0.685245
vn 0.000000 1.000000 0.000000
vn 0.000000 1.000000 0.000000
vn 0.000000 1.000000 0.000000
vn 0.000000 1.000000 0.000000
s off
g tile_part
f 2/1/1 1/2/2 3/3/3 4/4/4
f 4/5/5 3/6/6 6/7/7 5/8/8
