# This file uses centimeters as units for non-parametric coordinates.

g default
v -0.476314 0.021249 0.275000
v -0.476314 0.021249 -0.275000
v -0.413128 0.081761 0.238519
v -0.413128 0.081761 -0.238520
v -0.190526 0.081761 -0.110000
v -0.190526 0.081761 0.110000
vt 0.583333 0.312500
vt 0.625000 0.312500
vt 0.625000 0.688440
vt 0.583333 0.688440
vt 0.656250 0.843750
vt 0.578125 0.979066
vt 0.531250 0.894127
vt 0.562500 0.840000
vn -0.691658 0.722225 -0.000000
vn -0.691658 0.722225 -0.000000
vn -0.691658 0.722225 -0.000000
vn -0.691658 0.722225 -0.000000
vn 0.000000 1.000000 -0.000000
vn 0.000000 1.000000 -0.000000
vn 0.000000 1.000000 -0.000000
vn 0.000000 1.000000 -0.000000
s off
g tilePart tile_part7
f 2/1/1 1/2/2 3/3/3 4/4/4
f 4/5/5 3/6/6 6/7/7 5/8/8
