# This file uses centimeters as units for non-parametric coordinates.

g default
v 0.000000 0.000000 -0.500000
v -0.433013 0.000000 -0.250000
v 0.433013 0.000000 -0.250000
v -0.433013 0.000000 0.250000
v -0.000000 0.000000 0.500000
v 0.433013 0.000000 0.250000
v -0.433013 0.053482 -0.250000
v -0.419644 0.066851 -0.242282
v 0.000000 0.053482 -0.500000
v 0.000000 0.066851 -0.484563
v 0.433013 0.053482 -0.250000
v 0.419644 0.066851 -0.242281
v -0.000000 0.053482 0.500000
v -0.000000 0.066851 0.484563
v -0.433013 0.053482 0.250000
v -0.419644 0.066851 0.242281
v 0.433013 0.053482 0.250000
v 0.419644 0.066851 0.242282
vt 0.000000 0.199980
vt 0.015437 -0.000000
vt 0.984563 0.000000
vt 0.984563 0.000000
vt 0.000000 0.199980
vt 0.015437 -0.000000
vt 0.000000 0.199980
vt 0.015437 -0.000000
vt 0.984563 0.000000
vt 0.000000 0.199980
vt 0.015437 -0.000000
vt 0.984563 0.000000
vt 0.000000 0.199980
vt 0.015437 0.000000
vt 0.984563 0.000000
vt 0.984563 -0.000000
vt 0.000000 0.199980
vt 0.015437 0.000000
vt 1.000000 0.199980
vt 1.000000 1.000000
vt 0.000000 1.000000
vt 1.000000 0.199980
vt 1.000000 1.000000
vt 0.000000 1.000000
vt 1.000000 0.199980
vt 1.000000 1.000000
vt 0.000000 1.000000
vt 1.000000 0.199980
vt 1.000000 1.000000
vt 0.000000 1.000000
vt 1.000000 0.199980
vt 1.000000 1.000000
vt 0.000000 1.000000
vt 1.000000 0.199980
vt 1.000000 1.000000
vt 0.000000 1.000000
vt 0.015437 0.030874
vt 0.015437 0.030874
vt 0.984563 0.030874
vt 0.015437 0.030874
vt 0.984563 0.030874
vt 0.015437 0.030874
vt 0.015437 0.030874
vt 0.015437 0.030874
vt 0.000000 0.000000
vt 1.000000 0.000000
vt 0.000000 0.000000
vt 0.000000 0.000000
vt 0.000000 0.000000
vt 0.000000 0.000000
vt 1.000000 0.000000
vt 0.000000 0.000000
vn -0.353553 0.707107 -0.612372
vn -0.353553 0.707107 -0.612372
vn -0.353553 0.707107 -0.612372
vn -0.353553 0.707107 -0.612372
vn -0.707107 0.707107 -0.000000
vn -0.707107 0.707107 -0.000000
vn -0.707107 0.707107 -0.000000
vn -0.707107 0.707107 -0.000000
vn 0.353553 0.707107 -0.612373
vn 0.353553 0.707107 -0.612372
vn 0.353553 0.707107 -0.612373
vn 0.353553 0.707107 -0.612372
vn 0.707107 0.707107 0.000000
vn 0.707107 0.707107 0.000000
vn 0.707107 0.707107 0.000000
vn 0.707107 0.707107 0.000000
vn -0.353553 0.707107 0.612372
vn -0.353553 0.707107 0.612372
vn -0.353553 0.707107 0.612372
vn -0.353553 0.707107 0.612372
vn 0.353553 0.707107 0.612372
vn 0.353553 0.707107 0.612372
vn 0.353553 0.707107 0.612372
vn 0.353553 0.707107 0.612372
vn -0.500000 0.000000 -0.866026
vn -0.500000 0.000000 -0.866026
vn -0.500000 0.000000 -0.866026
vn -0.500000 0.000000 -0.866026
vn 0.500000 0.000000 -0.866025
vn 0.500000 0.000000 -0.866025
vn 0.500000 0.000000 -0.866025
vn 0.500000 0.000000 -0.866025
vn -0.500000 0.000000 0.866025
vn -0.500000 0.000000 0.866025
vn -0.500000 0.000000 0.866025
vn -0.500000 0.000000 0.866025
vn -1.000000 0.000000 -0.000000
vn -1.000000 0.000000 -0.000000
vn -1.000000 0.000000 -0.000000
vn -1.000000 0.000000 -0.000000
vn 0.500000 0.000000 0.866026
vn 0.500000 0.000000 0.866026
vn 0.500000 0.000000 0.866026
vn 0.500000 0.000000 0.866026
vn 1.000000 0.000000 0.000000
vn 1.000000 0.000000 0.000000
vn 1.000000 0.000000 0.000000
vn 1.000000 0.000000 0.000000
vn -0.000000 1.000000 0.000000
vn -0.000000 1.000000 0.000000
vn -0.000000 1.000000 0.000000
vn -0.000000 1.000000 0.000000
vn -0.000000 1.000000 0.000000
vn -0.000000 1.000000 0.000000
vn 0.000000 -1.000000 -0.000000
vn 0.000000 -1.000000 -0.000000
vn 0.000000 -1.000000 -0.000000
vn 0.000000 -1.000000 -0.000000
vn 0.000000 -1.000000 0.000000
vn 0.000000 -1.000000 0.000000
vn 0.000000 -1.000000 0.000000
vn 0.000000 -1.000000 0.000000
s off
g hexTile
f 7/1/1 8/2/2 10/3/3 9/19/4
f 8/4/5 7/28/6 15/5/7 16/6/8
f 9/7/9 10/8/10 12/9/11 11/22/12
f 11/10/13 12/11/14 18/12/15 17/34/16
f 13/13/17 14/14/18 16/15/19 15/25/20
f 14/16/21 13/31/22 17/17/23 18/18/24
f 7/1/25 9/19/26 1/20/27 2/21/28
f 9/7/29 11/22/30 3/23/31 1/24/32
f 13/13/33 15/25/34 4/26/35 5/27/36
f 15/5/37 7/28/38 2/29/39 4/30/40
f 17/17/41 13/31/42 5/32/43 6/33/44
f 11/10/45 17/34/46 6/35/47 3/36/48
s 1
f 16/40/49 14/41/50 10/37/51 8/42/52
f 10/39/51 14/43/50 18/44/53 12/38/54
s off
f 5/51/55 1/47/56 3/52/57 6/50/58
f 5/48/59 4/49/60 2/45/61 1/46/62
