# This file uses centimeters as units for non-parametric coordinates.

g default
v 0.157116 0.081761 0.090711
v 0.157116 0.081761 -0.090711
v -0.000000 0.081761 0.000000
v 0.000000 0.081761 -0.181421
v -0.157116 0.081761 -0.090711
v -0.157116 0.081761 0.090711
v 0.000000 0.081761 0.181421
v -0.157116 0.051505 -0.090711
v -0.157116 0.051505 0.090711
v -0.000000 0.051505 0.181421
v 0.157116 0.051505 0.090711
v 0.157116 0.051505 -0.090711
v 0.000000 0.051505 -0.181421
v -0.476314 0.051505 0.275000
v -0.000000 0.051505 0.550000
v -0.476314 0.021249 0.275000
v -0.000000 0.021249 0.550000
v 0.000000 0.051505 0.000000
v 0.000000 0.021249 0.000000
v 0.476314 0.051505 0.275000
v 0.476314 0.021249 0.275000
v 0.476314 0.051505 -0.275000
v 0.476314 0.021249 -0.275000
v 0.000000 0.051505 -0.550000
v 0.000000 0.021249 -0.550000
v -0.476314 0.051505 -0.275000
v -0.476314 0.021249 -0.275000
vt 0.000000 0.000000
vt 1.000000 0.000000
vt 0.100516 0.000000
vt 0.000000 0.000000
vt 1.000000 0.000000
vt 1.000000 0.500000
vt 0.000000 0.500000
vt 0.000000 0.000000
vt 1.000000 0.000000
vt 0.100516 0.000000
vt 0.000000 0.000000
vt 1.000000 0.000000
vt 1.000000 0.500000
vt 0.000000 0.500000
vt 0.000000 0.000000
vt 1.000000 0.000000
vt 0.100516 0.000000
vt 0.000000 0.000000
vt 1.000000 0.000000
vt 1.000000 0.500000
vt 0.000000 0.500000
vt 0.000000 0.000000
vt 1.000000 0.000000
vt 0.100516 0.000000
vt 0.000000 0.000000
vt 1.000000 0.000000
vt 1.000000 0.500000
vt 0.000000 0.500000
vt 0.000000 0.000000
vt 1.000000 0.000000
vt 0.100516 0.000000
vt 0.000000 0.000000
vt 1.000000 0.000000
vt 1.000000 0.500000
vt 0.000000 0.500000
vt 0.000000 0.000000
vt 1.000000 0.000000
vt 0.100516 0.000000
vt 0.000000 0.000000
vt 1.000000 0.000000
vt 1.000000 0.500000
vt 0.000000 0.500000
vt 0.000000 0.500000
vt 1.000000 0.500000
vt 1.000000 1.000000
vt 0.000000 1.000000
vt 0.279915 0.506934
vt 0.262696 0.992518
vt 0.000000 0.500000
vt 1.000000 0.500000
vt 1.000000 1.000000
vt 0.000000 1.000000
vt 0.279915 0.506934
vt 0.262696 0.992518
vt 0.000000 0.500000
vt 1.000000 0.500000
vt 1.000000 1.000000
vt 0.000000 1.000000
vt 0.279915 0.506934
vt 0.262696 0.992518
vt 0.000000 0.500000
vt 1.000000 0.500000
vt 1.000000 1.000000
vt 0.000000 1.000000
vt 0.279915 0.506934
vt 0.262696 0.992518
vt 0.000000 0.500000
vt 1.000000 0.500000
vt 1.000000 1.000000
vt 0.000000 1.000000
vt 0.279915 0.506934
vt 0.262696 0.992518
vt 0.000000 0.500000
vt 1.000000 0.500000
vt 1.000000 1.000000
vt 0.000000 1.000000
vt 0.279915 0.506934
vt 0.262696 0.992518
vn 0.000000 1.000000 -0.000000
vn 0.000000 1.000000 0.000000
vn 0.000000 1.000000 -0.000000
vn 1.000000 0.000000 0.000000
vn 1.000000 0.000000 0.000000
vn 1.000000 0.000000 0.000000
vn 1.000000 0.000000 0.000000
vn 0.000000 1.000000 -0.000000
vn 0.000000 1.000000 -0.000000
vn -0.500000 0.000000 -0.866025
vn -0.500000 0.000000 -0.866025
vn -0.500000 0.000000 -0.866025
vn -0.500000 0.000000 -0.866026
vn 0.500000 -0.000000 -0.866025
vn 0.500000 -0.000000 -0.866025
vn 0.500000 -0.000000 -0.866025
vn 0.500000 -0.000000 -0.866025
vn 0.000000 1.000000 0.000000
vn -1.000000 0.000000 0.000000
vn -1.000000 0.000000 0.000000
vn -1.000000 0.000000 0.000000
vn -1.000000 0.000000 0.000000
vn 0.000000 1.000000 -0.000000
vn -0.500000 -0.000000 0.866025
vn -0.500000 -0.000000 0.866026
vn -0.500000 -0.000000 0.866025
vn -0.500000 -0.000000 0.866025
vn 0.500000 0.000000 0.866025
vn 0.500000 0.000000 0.866025
vn 0.500000 0.000000 0.866025
vn 0.500000 0.000000 0.866025
vn -0.500000 0.000000 0.866025
vn -0.500000 0.000000 0.866025
vn -0.500000 0.000000 0.866025
vn -0.500000 0.000000 0.866025
vn 0.000000 1.000000 0.000000
vn -0.000000 1.000000 0.000000
vn -0.000000 1.000000 0.000000
vn 0.000000 -1.000000 0.000000
vn 0.000000 -1.000000 -0.000000
vn 0.000000 -1.000000 0.000000
vn 0.500000 -0.000000 0.866025
vn 0.500000 -0.000000 0.866025
vn 0.500000 -0.000000 0.866025
vn 0.500000 -0.000000 0.866025
vn 0.000000 1.000000 0.000000
vn 0.000000 -1.000000 -0.000000
vn 1.000000 0.000001 0.000000
vn 1.000000 0.000001 0.000000
vn 1.000000 0.000001 0.000000
vn 1.000000 0.000001 0.000000
vn 0.000000 1.000000 -0.000000
vn 0.000000 -1.000000 0.000000
vn 0.500000 0.000000 -0.866025
vn 0.500000 0.000000 -0.866025
vn 0.500000 0.000000 -0.866025
vn 0.500000 0.000000 -0.866025
vn 0.000000 1.000000 -0.000000
vn 0.000000 -1.000000 0.000000
vn -0.500000 -0.000000 -0.866025
vn -0.500000 -0.000000 -0.866025
vn -0.500000 -0.000000 -0.866025
vn -0.500000 -0.000000 -0.866025
vn -0.000000 1.000000 -0.000000
vn 0.000000 -1.000000 0.000000
vn -1.000000 0.000001 -0.000000
vn -1.000000 0.000001 -0.000000
vn -1.000000 0.000001 -0.000000
vn -1.000000 0.000001 -0.000000
s 1
g hexPlayerTileCenter
f 1/1/1 2/2/2 3/3/3
s off
f 2/4/4 1/5/5 11/6/6 12/7/7
s 1
f 4/8/8 5/9/9 3/10/3
s off
f 5/11/10 4/12/11 13/13/12 8/14/13
s 1
f 2/15/2 4/16/8 3/17/3
s off
f 4/18/14 2/19/15 12/20/16 13/21/17
s 1
f 5/22/9 6/23/18 3/24/3
s off
f 6/25/19 5/26/20 8/27/21 9/28/22
s 1
f 6/29/18 7/30/23 3/31/3
s off
f 7/32/24 6/33/25 9/34/26 10/35/27
s 1
f 7/36/23 1/37/1 3/38/3
s off
f 1/39/28 7/40/29 10/41/30 11/42/31
f 15/43/32 14/44/33 16/45/34 17/46/35
s 3
f 18/47/36 14/44/37 15/43/38
s 4
f 19/48/39 17/46/40 16/45/41
s off
f 20/49/42 15/50/43 17/51/44 21/52/45
s 3
f 18/53/36 15/50/38 20/49/46
s 4
f 19/54/39 21/52/47 17/51/40
s off
f 22/55/48 20/56/49 21/57/50 23/58/51
s 3
f 18/59/36 20/56/46 22/55/52
s 4
f 19/60/39 23/58/53 21/57/47
s off
f 24/61/54 22/62/55 23/63/56 25/64/57
s 3
f 18/65/36 22/62/52 24/61/58
s 4
f 19/66/39 25/64/59 23/63/53
s off
f 26/67/60 24/68/61 25/69/62 27/70/63
s 3
f 18/71/36 24/68/58 26/67/64
s 4
f 19/72/39 27/70/65 25/69/59
s off
f 14/73/66 26/74/67 27/75/68 16/76/69
s 3
f 18/77/36 26/74/64 14/73/37
s 4
f 19/78/39 16/76/41 27/75/65
