# This file uses centimeters as units for non-parametric coordinates.

g default
v 0.157116 0.082934 0.090711
v 0.157116 0.082934 -0.090711
v 0.000000 0.082934 -0.181421
v -0.157116 0.082934 -0.090711
v -0.157116 0.082934 0.090711
v 0.000000 0.082934 0.181421
v -0.157116 0.052678 -0.090711
v -0.157116 0.052678 0.090711
v -0.000000 0.052678 0.181421
v 0.157116 0.052678 0.090711
v 0.157116 0.052678 -0.090711
v 0.000000 0.052678 -0.181421
vt 0.000000 0.000000
vt 1.000000 0.000000
vt 1.000000 0.500000
vt 0.000000 0.500000
vt 0.000000 0.000000
vt 0.000000 0.000000
vt 0.000000 0.000000
vt 1.000000 0.000000
vt 0.000000 0.000000
vt 1.000000 0.000000
vt 1.000000 0.500000
vt 0.000000 0.500000
vt 0.000000 0.000000
vt 1.000000 0.000000
vt 1.000000 0.500000
vt 0.000000 0.500000
vt 0.000000 0.000000
vt 1.000000 0.000000
vt 1.000000 0.500000
vt 0.000000 0.500000
vt 0.000000 0.000000
vt 1.000000 0.000000
vt 1.000000 0.500000
vt 0.000000 0.500000
vt 1.000000 0.000000
vt 0.000000 0.000000
vt 0.000000 0.000000
vt 0.000000 0.000000
vt 0.000000 0.000000
vt 1.000000 0.000000
vt 1.000000 0.500000
vt 0.000000 0.500000
vn 1.000000 0.000000 0.000000
vn 1.000000 0.000000 0.000000
vn 1.000000 0.000000 0.000000
vn 1.000000 0.000000 0.000000
vn 0.000000 1.000000 0.000000
vn 0.000000 1.000000 0.000000
vn 0.000000 1.000000 0.000000
vn 0.000000 1.000000 0.000000
vn -0.500000 0.000000 -0.866025
vn -0.500000 0.000000 -0.866025
vn -0.500000 0.000000 -0.866025
vn -0.500000 0.000000 -0.866026
vn 0.500000 -0.000000 -0.866025
vn 0.500000 -0.000000 -0.866025
vn 0.500000 -0.000000 -0.866025
vn 0.500000 -0.000000 -0.866025
vn -1.000000 0.000000 0.000000
vn -1.000000 0.000000 0.000000
vn -1.000000 0.000000 0.000000
vn -1.000000 0.000000 0.000000
vn -0.500000 -0.000000 0.866025
vn -0.500000 -0.000000 0.866026
vn -0.500000 -0.000000 0.866025
vn -0.500000 -0.000000 0.866025
vn 0.000000 1.000000 0.000000
vn 0.000000 1.000000 0.000000
vn 0.500000 0.000000 0.866025
vn 0.500000 0.000000 0.866025
vn 0.500000 0.000000 0.866025
vn 0.500000 0.000000 0.866025
s off
g HexPayerTileCenter hexPlayerTileCenter
f 2/1/1 1/2/2 10/3/3 11/4/4
s 1
f 3/5/5 4/6/6 5/7/7 6/8/8
s off
f 4/9/9 3/10/10 12/11/11 7/12/12
f 3/13/13 2/14/14 11/15/15 12/16/16
f 5/17/17 4/18/18 7/19/19 8/20/20
f 6/21/21 5/22/22 8/23/23 9/24/24
s 1
f 3/25/5 6/26/8 1/27/25 2/28/26
s off
f 1/29/27 6/30/28 9/31/29 10/32/30
