# This file uses centimeters as units for non-parametric coordinates.

g default
v -0.447491 0.000000 -0.258359
v 0.000000 0.000000 -0.516718
v 0.000000 0.021249 -0.550000
v -0.476314 0.021249 -0.275000
v -0.476314 0.021249 0.275000
v -0.447491 -0.000000 0.258359
v 0.447491 0.000000 -0.258359
v 0.476314 0.021249 -0.275000
v 0.447491 -0.000000 0.258359
v 0.476314 0.021249 0.275000
v -0.000000 -0.000000 0.516718
v -0.000000 0.021249 0.550000
vt 0.000000 0.199980
vt 0.015437 -0.000000
vt 0.984563 0.000000
vt 1.000000 0.199980
vt 0.984563 0.000000
vt 1.000000 0.199980
vt 0.000000 0.199980
vt 0.015437 -0.000000
vt 0.000000 0.199980
vt 0.015437 -0.000000
vt 0.984563 0.000000
vt 1.000000 0.199980
vt 0.000000 0.199980
vt 0.015437 -0.000000
vt 0.984563 0.000000
vt 1.000000 0.199980
vt 0.000000 0.199980
vt 0.015437 0.000000
vt 0.984563 0.000000
vt 1.000000 0.199980
vt 0.984563 -0.000000
vt 1.000000 0.199980
vt 0.000000 0.199980
vt 0.015437 0.000000
vn 0.296701 0.804906 0.513902
vn 0.296701 0.804906 0.513902
vn 0.296701 0.804906 0.513902
vn 0.296701 0.804906 0.513902
vn 0.593402 0.804906 0.000000
vn 0.593402 0.804906 0.000000
vn 0.593402 0.804906 0.000000
vn 0.593402 0.804906 0.000000
vn -0.296701 0.804906 0.513902
vn -0.296701 0.804906 0.513902
vn -0.296701 0.804906 0.513902
vn -0.296701 0.804906 0.513902
vn -0.593403 0.804906 -0.000000
vn -0.593403 0.804906 -0.000000
vn -0.593402 0.804906 -0.000000
vn -0.593403 0.804906 -0.000000
vn 0.296702 0.804906 -0.513902
vn 0.296702 0.804906 -0.513902
vn 0.296702 0.804906 -0.513902
vn 0.296702 0.804905 -0.513902
vn -0.296701 0.804906 -0.513902
vn -0.296701 0.804906 -0.513902
vn -0.296701 0.804906 -0.513902
vn -0.296701 0.804906 -0.513902
s off
g hexBoardTileOutline boardHexTile1
f 4/1/1 1/2/2 2/3/3 3/4/4
f 1/5/5 4/6/6 5/7/7 6/8/8
f 3/9/9 2/10/10 7/11/11 8/12/12
f 8/13/13 7/14/14 9/15/15 10/16/16
f 12/17/17 11/18/18 6/19/19 5/20/20
f 11/21/21 12/22/22 10/23/23 9/24/24
